999
"DXF R12 Output" (www.mydxf.blogspot.com)
 0 
SECTION
 2 
HEADER
 9 
$ACADVER
 1 
AC1009
 9 
$EXTMIN
 10 
 0 
 20 
 0 
 9 
$EXTMAX
 10 
 8.5 
 20 
 11 
 0 
ENDSEC
 0 
SECTION
 2 
ENTITIES
0
LINE
8
Layer 1
10
0.793749
20
100.937749
11
-0.793749
21
99.350251
0
LINE
8
Layer 1
10
0.000000
20
101.466915
11
0.000000
21
98.821085
0
LINE
8
Layer 1
10
2.116664
20
99.085668
11
1.058332
21
98.027336
0
LINE
8
Layer 1
10
1.587498
20
99.614834
11
0.529166
21
98.556502
0
LINE
8
Layer 1
10
1.058332
20
100.144000
11
0.000000
21
99.085668
0
LINE
8
Shape2DView
10
31.382553
20
96.887224
11
31.382553
21
100.012214
0
LINE
8
Shape2DView
10
31.382553
20
96.887224
11
62.632424
21
96.887224
0
LINE
8
Shape2DView
10
62.632424
20
96.887224
11
62.632424
21
100.012214
0
LINE
8
Shape2DView
10
62.632424
20
100.012214
11
93.882376
21
100.012214
0
LINE
8
Shape2DView
10
93.882376
20
100.012214
11
93.882376
21
96.887224
0
LINE
8
Shape2DView
10
93.882376
20
96.887224
11
125.132247
21
96.887224
0
LINE
8
Shape2DView
10
125.132247
20
96.887224
11
125.132247
21
100.012214
0
LINE
8
Shape2DView
10
125.132247
20
100.012214
11
156.382410
21
100.012214
0
LINE
8
Shape2DView
10
156.382410
20
100.012214
11
156.382410
21
80.036462
0
LINE
8
Shape2DView
10
153.257420
20
80.036462
11
156.382410
21
80.036462
0
LINE
8
Shape2DView
10
153.257420
20
80.036462
11
153.257420
21
60.060710
0
LINE
8
Shape2DView
10
153.257420
20
60.060710
11
156.382410
21
60.060710
0
LINE
8
Shape2DView
10
156.382410
20
40.084693
11
156.382410
21
60.060710
0
LINE
8
Shape2DView
10
153.257420
20
40.084693
11
156.382410
21
40.084693
0
LINE
8
Shape2DView
10
153.257420
20
20.108677
11
153.257420
21
40.084693
0
LINE
8
Shape2DView
10
153.257420
20
20.108677
11
156.382410
21
20.108677
0
LINE
8
Shape2DView
10
156.382410
20
20.108677
11
156.382410
21
0.132660
0
LINE
8
Shape2DView
10
125.132247
20
0.132660
11
156.382410
21
0.132660
0
LINE
8
Shape2DView
10
125.132247
20
3.257385
11
125.132247
21
0.132660
0
LINE
8
Shape2DView
10
93.882376
20
3.257385
11
125.132247
21
3.257385
0
LINE
8
Shape2DView
10
93.882376
20
0.132660
11
93.882376
21
3.257385
0
LINE
8
Shape2DView
10
62.632424
20
0.132660
11
93.882376
21
0.132660
0
LINE
8
Shape2DView
10
62.632424
20
3.257385
11
62.632424
21
0.132660
0
LINE
8
Shape2DView
10
31.382553
20
3.257385
11
62.632424
21
3.257385
0
LINE
8
Shape2DView
10
31.382553
20
0.132660
11
31.382553
21
3.257385
0
LINE
8
Shape2DView
10
0.132390
20
0.132660
11
31.382553
21
0.132660
0
LINE
8
Shape2DView
10
0.132390
20
20.108677
11
0.132390
21
0.132660
0
LINE
8
Shape2DView
10
3.257380
20
20.108677
11
0.132390
21
20.108677
0
LINE
8
Shape2DView
10
3.257380
20
20.108677
11
3.257380
21
40.084693
0
LINE
8
Shape2DView
10
3.257380
20
40.084693
11
0.132390
21
40.084693
0
LINE
8
Shape2DView
10
0.132390
20
40.084693
11
0.132390
21
60.060710
0
LINE
8
Shape2DView
10
3.257380
20
60.060710
11
0.132390
21
60.060710
0
LINE
8
Shape2DView
10
3.257380
20
80.036462
11
3.257380
21
60.060710
0
LINE
8
Shape2DView
10
3.257380
20
80.036462
11
0.132390
21
80.036462
0
LINE
8
Shape2DView
10
0.132390
20
100.012214
11
0.132390
21
80.036462
0
LINE
8
Shape2DView
10
31.382553
20
100.012214
11
0.132390
21
100.012214
0
LINE
8
Shape2DView
10
55.757420
20
13.758685
11
55.757420
21
76.758543
0
LINE
8
Shape2DView
10
55.757420
20
76.758543
11
100.757380
21
76.758543
0
LINE
8
Shape2DView
10
100.757380
20
76.758543
11
100.757380
21
13.758685
0
LINE
8
Shape2DView
10
100.757380
20
13.758685
11
55.757420
21
13.758685
0
LINE
8
Shape2DView
10
41.257447
20
61.887364
11
41.164221
21
63.727524
0
LINE
8
Shape2DView
10
41.164221
20
63.727524
11
40.891212
21
65.514509
0
LINE
8
Shape2DView
10
40.891212
20
65.514509
11
40.447467
21
67.239274
0
LINE
8
Shape2DView
10
40.447467
20
67.239274
11
39.842031
21
68.892777
0
LINE
8
Shape2DView
10
39.842031
20
68.892777
11
39.083949
21
70.465972
0
LINE
8
Shape2DView
10
39.083949
20
70.465972
11
38.182266
21
71.949817
0
LINE
8
Shape2DView
10
38.182266
20
71.949817
11
37.146030
21
73.335265
0
LINE
8
Shape2DView
10
37.146030
20
73.335265
11
35.984284
21
74.613275
0
LINE
8
Shape2DView
10
35.984284
20
74.613275
11
34.706075
21
75.774802
0
LINE
8
Shape2DView
10
34.706075
20
75.774802
11
33.320449
21
76.810801
0
LINE
8
Shape2DView
10
33.320449
20
76.810801
11
31.836450
21
77.712228
0
LINE
8
Shape2DView
10
31.836450
20
77.712228
11
30.263125
21
78.470041
0
LINE
8
Shape2DView
10
30.263125
20
78.470041
11
28.609519
21
79.075193
0
LINE
8
Shape2DView
10
28.609519
20
79.075193
11
26.884677
21
79.518643
0
LINE
8
Shape2DView
10
26.884677
20
79.518643
11
25.097645
21
79.791345
0
LINE
8
Shape2DView
10
25.097645
20
79.791345
11
23.257469
21
79.884255
0
LINE
8
Shape2DView
10
23.257469
20
79.884255
11
21.417294
21
79.791345
0
LINE
8
Shape2DView
10
21.417294
20
79.791345
11
19.630262
21
79.518643
0
LINE
8
Shape2DView
10
19.630262
20
79.518643
11
17.905420
21
79.075193
0
LINE
8
Shape2DView
10
17.905420
20
79.075193
11
16.251814
21
78.470041
0
LINE
8
Shape2DView
10
16.251814
20
78.470041
11
14.678489
21
77.712228
0
LINE
8
Shape2DView
10
14.678489
20
77.712228
11
13.194490
21
76.810801
0
LINE
8
Shape2DView
10
13.194490
20
76.810801
11
11.808864
21
75.774802
0
LINE
8
Shape2DView
10
11.808864
20
75.774802
11
10.530655
21
74.613275
0
LINE
8
Shape2DView
10
10.530655
20
74.613275
11
9.368909
21
73.335265
0
LINE
8
Shape2DView
10
9.368909
20
73.335265
11
8.332673
21
71.949817
0
LINE
8
Shape2DView
10
8.332673
20
71.949817
11
7.430990
21
70.465972
0
LINE
8
Shape2DView
10
7.430990
20
70.465972
11
6.672908
21
68.892777
0
LINE
8
Shape2DView
10
6.672908
20
68.892777
11
6.067472
21
67.239274
0
LINE
8
Shape2DView
10
6.067472
20
67.239274
11
5.623727
21
65.514509
0
LINE
8
Shape2DView
10
5.623727
20
65.514509
11
5.350718
21
63.727524
0
LINE
8
Shape2DView
10
5.350718
20
63.727524
11
5.257492
21
61.887364
0
LINE
8
Shape2DView
10
5.257492
20
61.887364
11
5.350718
21
60.047204
0
LINE
8
Shape2DView
10
5.350718
20
60.047204
11
5.623727
21
58.260220
0
LINE
8
Shape2DView
10
5.623727
20
58.260220
11
6.067472
21
56.535454
0
LINE
8
Shape2DView
10
6.067472
20
56.535454
11
6.672908
21
54.881952
0
LINE
8
Shape2DView
10
6.672908
20
54.881952
11
7.430990
21
53.308756
0
LINE
8
Shape2DView
10
7.430990
20
53.308756
11
8.332673
21
51.824912
0
LINE
8
Shape2DView
10
8.332673
20
51.824912
11
9.368909
21
50.439463
0
LINE
8
Shape2DView
10
9.368909
20
50.439463
11
10.530655
21
49.161453
0
LINE
8
Shape2DView
10
10.530655
20
49.161453
11
11.808864
21
47.999927
0
LINE
8
Shape2DView
10
11.808864
20
47.999927
11
13.194490
21
46.963928
0
LINE
8
Shape2DView
10
13.194490
20
46.963928
11
14.678489
21
46.062500
0
LINE
8
Shape2DView
10
14.678489
20
46.062500
11
16.251814
21
45.304688
0
LINE
8
Shape2DView
10
16.251814
20
45.304688
11
17.905420
21
44.699535
0
LINE
8
Shape2DView
10
17.905420
20
44.699535
11
19.630262
21
44.256086
0
LINE
8
Shape2DView
10
19.630262
20
44.256086
11
21.417294
21
43.983384
0
LINE
8
Shape2DView
10
21.417294
20
43.983384
11
23.257469
21
43.890473
0
LINE
8
Shape2DView
10
23.257469
20
43.890473
11
25.097645
21
43.983384
0
LINE
8
Shape2DView
10
25.097645
20
43.983384
11
26.884677
21
44.256086
0
LINE
8
Shape2DView
10
26.884677
20
44.256086
11
28.609519
21
44.699535
0
LINE
8
Shape2DView
10
28.609519
20
44.699535
11
30.263125
21
45.304688
0
LINE
8
Shape2DView
10
30.263125
20
45.304688
11
31.836450
21
46.062500
0
LINE
8
Shape2DView
10
31.836450
20
46.062500
11
33.320449
21
46.963928
0
LINE
8
Shape2DView
10
33.320449
20
46.963928
11
34.706075
21
47.999927
0
LINE
8
Shape2DView
10
34.706075
20
47.999927
11
35.984284
21
49.161453
0
LINE
8
Shape2DView
10
35.984284
20
49.161453
11
37.146030
21
50.439463
0
LINE
8
Shape2DView
10
37.146030
20
50.439463
11
38.182266
21
51.824912
0
LINE
8
Shape2DView
10
38.182266
20
51.824912
11
39.083949
21
53.308756
0
LINE
8
Shape2DView
10
39.083949
20
53.308756
11
39.842031
21
54.881952
0
LINE
8
Shape2DView
10
39.842031
20
54.881952
11
40.447467
21
56.535454
0
LINE
8
Shape2DView
10
40.447467
20
56.535454
11
40.891212
21
58.260220
0
LINE
8
Shape2DView
10
40.891212
20
58.260220
11
41.164221
21
60.047204
0
LINE
8
Shape2DView
10
41.164221
20
60.047204
11
41.257447
21
61.887364
0
LINE
8
Shape2DView
10
41.257447
20
61.887364
11
41.257447
21
61.887364
0
LINE
8
Shape2DView
10
144.757316
20
55.523349
11
144.481715
21
56.885088
0
LINE
8
Shape2DView
10
144.481715
20
56.885088
11
143.731510
21
57.996976
0
LINE
8
Shape2DView
10
143.731510
20
57.996976
11
142.619210
21
58.746568
0
LINE
8
Shape2DView
10
142.619210
20
58.746568
11
141.257320
21
59.021420
0
LINE
8
Shape2DView
10
141.257320
20
59.021420
11
139.895431
21
58.746568
0
LINE
8
Shape2DView
10
139.895431
20
58.746568
11
138.783130
21
57.996976
0
LINE
8
Shape2DView
10
138.783130
20
57.996976
11
138.032926
21
56.885088
0
LINE
8
Shape2DView
10
138.032926
20
56.885088
11
137.757325
21
55.523349
0
LINE
8
Shape2DView
10
137.757325
20
55.523349
11
138.032926
21
54.161611
0
LINE
8
Shape2DView
10
138.032926
20
54.161611
11
138.783130
21
53.049723
0
LINE
8
Shape2DView
10
138.783130
20
53.049723
11
139.895431
21
52.300130
0
LINE
8
Shape2DView
10
139.895431
20
52.300130
11
141.257320
21
52.025278
0
LINE
8
Shape2DView
10
141.257320
20
52.025278
11
142.619210
21
52.300130
0
LINE
8
Shape2DView
10
142.619210
20
52.300130
11
143.731510
21
53.049723
0
LINE
8
Shape2DView
10
143.731510
20
53.049723
11
144.481715
21
54.161611
0
LINE
8
Shape2DView
10
144.481715
20
54.161611
11
144.757316
21
55.523349
0
LINE
8
Shape2DView
10
144.757316
20
55.523349
11
144.757316
21
55.523349
0
LINE
8
Shape2DView
10
132.029431
20
68.251353
11
131.753830
21
69.613091
0
LINE
8
Shape2DView
10
131.753830
20
69.613091
11
131.003626
21
70.724979
0
LINE
8
Shape2DView
10
131.003626
20
70.724979
11
129.891326
21
71.474572
0
LINE
8
Shape2DView
10
129.891326
20
71.474572
11
128.529436
21
71.749424
0
LINE
8
Shape2DView
10
128.529436
20
71.749424
11
127.167546
21
71.474572
0
LINE
8
Shape2DView
10
127.167546
20
71.474572
11
126.055246
21
70.724979
0
LINE
8
Shape2DView
10
126.055246
20
70.724979
11
125.305042
21
69.613091
0
LINE
8
Shape2DView
10
125.305042
20
69.613091
11
125.029441
21
68.251353
0
LINE
8
Shape2DView
10
125.029441
20
68.251353
11
125.305042
21
66.889614
0
LINE
8
Shape2DView
10
125.305042
20
66.889614
11
126.055246
21
65.777726
0
LINE
8
Shape2DView
10
126.055246
20
65.777726
11
127.167546
21
65.028134
0
LINE
8
Shape2DView
10
127.167546
20
65.028134
11
128.529436
21
64.753282
0
LINE
8
Shape2DView
10
128.529436
20
64.753282
11
129.891326
21
65.028134
0
LINE
8
Shape2DView
10
129.891326
20
65.028134
11
131.003626
21
65.777726
0
LINE
8
Shape2DView
10
131.003626
20
65.777726
11
131.753830
21
66.889614
0
LINE
8
Shape2DView
10
131.753830
20
66.889614
11
132.029431
21
68.251353
0
LINE
8
Shape2DView
10
132.029431
20
68.251353
11
132.029431
21
68.251353
 0 
ENDSEC
 0 
EOF